<svg width="225" height="207" viewBox="0 0 225 207" fill="none" xmlns="http://www.w3.org/2000/svg">
<path d="M77.5873 207V199.87C83.1674 199.663 87.5074 199.043 90.6073 198.01C93.914 196.977 96.1873 194.807 97.4274 191.5C98.6673 188.193 99.2873 183.027 99.2873 176V116.79C73.8673 116.583 53.924 109.557 39.4573 95.71C24.9907 81.6567 17.7573 61.3 17.7573 34.64C17.7573 27.2 16.5173 21.2067 14.0373 16.66C11.764 12.1133 7.11401 9.83999 0.0873438 9.83999V2.70999C5.66734 1.46999 11.2473 0.849993 16.8273 0.849993C25.714 0.849993 32.4307 3.84666 36.9773 9.83999C41.524 15.6267 43.7973 22.86 43.7973 31.54C43.7973 49.9333 46.484 64.5033 51.8573 75.25C57.4373 85.79 64.464 93.4367 72.9373 98.19C81.6174 102.737 90.4007 105.113 99.2873 105.32V31.85C99.2873 24.6167 98.4607 19.45 96.8074 16.35C95.3607 13.0433 92.5707 10.8733 88.4373 9.83999C84.304 8.80666 78.104 8.18666 69.8373 7.97999V0.849993H147.337V7.97999C141.757 8.18666 137.417 8.80666 134.317 9.83999C131.217 10.8733 128.944 13.0433 127.497 16.35C126.257 19.45 125.637 24.6167 125.637 31.85V105.32C134.524 105.113 143.204 102.737 151.677 98.19C160.357 93.4367 167.384 85.79 172.757 75.25C178.337 64.5033 181.127 49.9333 181.127 31.54C181.127 22.86 183.401 15.6267 187.947 9.83999C192.494 3.84666 199.211 0.849993 208.097 0.849993C213.677 0.849993 219.257 1.46999 224.837 2.70999V9.83999C217.811 9.83999 213.057 12.1133 210.577 16.66C208.304 21.2067 207.167 27.2 207.167 34.64C207.167 61.5067 199.831 81.9667 185.157 96.02C170.691 109.867 150.851 116.79 125.637 116.79V176C125.637 183.027 126.361 188.193 127.807 191.5C129.461 194.807 132.354 196.977 136.487 198.01C140.827 199.043 147.027 199.663 155.087 199.87V207H77.5873Z" fill="black"/>
</svg>
