<svg xmlns="http://www.w3.org/2000/svg" width="256" height="256" viewBox="0 0 25 24">
  <path fill-rule="evenodd" clip-rule="evenodd" d="M12.3405 23.9342C9.97568 23.9342 8.87728 23.5899 6.97252 22.2125C5.76041 23.762 1.94518 24.9672 1.77774 22.9012C1.77774 21.3535 1.42788 20.0492 1.04269 18.6132C0.570922 16.8544 0.0461426 14.898 0.0461426 12.0546C0.0461426 5.27426 5.6424 0.175079 12.2777 0.175079C18.913 0.175079 24.1153 5.52322 24.1153 12.1205C24.1153 18.7178 18.7474 23.9342 12.3405 23.9342ZM12.4368 6.03673C9.20791 5.86848 6.68817 8.0948 6.13253 11.5794C5.6724 14.465 6.48821 17.9812 7.18602 18.1582C7.51488 18.2416 8.35763 17.564 8.87711 17.0475C9.73154 17.5981 10.712 18.0245 11.8019 18.0813C15.1168 18.254 18.0544 15.6761 18.228 12.382C18.4016 9.08792 15.7517 6.20946 12.4368 6.03673Z" fill="white"/>
</svg>